<svg viewBox="0 0 332.3 374.1" 
    xmlns="http://www.w3.org/2000/svg" style="fill:none;stroke:none">
    <style>
        .no-fill-stroke{fill:none;}
        .stroke-1{stroke-linejoin:round;stroke-width:1;stroke:#263238;}
        .stroke-4{stroke-linejoin:round;stroke-width:4;stroke:#263238;}
        .stroke-9{stroke-linejoin:round;stroke-width:9;stroke:#263238;}
        .stroke-16{stroke-linejoin:round;stroke-width:16;stroke:#263238;}
    </style>
    <clipPath id="p.0">
        <path d="m0 0l332.3 0 0 374.1 -332.3 0 0-374.1z"/>
    </clipPath>
    <g clip-path="url(#p.0)">
        <path d="m0 0l332.3 0 0 374.1 -332.3 0z" class="no-fill-stroke"/>
        <path d="m15.5 121.3l3.4 192" class="no-fill-stroke"/>
        <path d="m15.5 121.3l3.4 192" class="stroke-9"/>
        <path d="m313.2 121.3l3.4 192" class="no-fill-stroke"/>
        <path d="m313.2 121.3l3.4 192" class="stroke-9"/>
        <path d="m164.4 168l3.4 192" class="no-fill-stroke"/>
        <path d="m164.4 168l3.4 192" class="stroke-9"/>
        <path d="m16.1 122.7c61.5 0 104.5 11.6 123 23.1 18.5 11.6 12.6 23.1 25.2 23.1" class="no-fill-stroke"/>
        <path d="m16.1 122.7c61.5 0 104.5 11.6 123 23.1 18.5 11.6 12.6 23.1 25.2 23.1" class="stroke-16"/>
        <path d="m164.3 168.9c14.2 0 9.6-11.3 28.4-22.6 18.8-11.3 61-22.6 121.9-22.6" class="no-fill-stroke"/>
        <path d="m164.3 168.9c14.2 0 9.6-11.3 28.4-22.6 18.8-11.3 61-22.6 121.9-22.6" class="stroke-16"/>
        <path d="m20.3 311.9c57.8 0 97 11.8 115.6 23.7 18.7 11.8 16.8 23.7 33.6 23.7" class="no-fill-stroke"/>
        <path d="m20.3 311.9c57.8 0 97 11.8 115.6 23.7 18.7 11.8 16.8 23.7 33.6 23.7" class="stroke-9"/>
        <path d="m168.5 359.2c17.9 0 17.3-12.1 35.7-24.2 18.4-12.1 55.7-24.2 111.4-24.2" class="no-fill-stroke"/>
        <path d="m168.5 359.2c17.9 0 17.3-12.1 35.7-24.2 18.4-12.1 55.7-24.2 111.4-24.2" class="stroke-9"/>
        <path d="m119.8 71.2l0 0c0-31.9 20.7-57.8 46.3-57.8l0 0c12.3 0 24 6.1 32.7 16.9 8.7 10.8 13.5 25.5 13.5 40.9l0 0c0 31.9-20.7 57.8-46.3 57.8l0 0c-25.5 0-46.3-25.9-46.3-57.8z" class="no-fill-stroke"/>
        <path d="m119.8 71.2l0 0c0-31.9 20.7-57.8 46.3-57.8l0 0c12.3 0 24 6.1 32.7 16.9 8.7 10.8 13.5 25.5 13.5 40.9l0 0c0 31.9-20.7 57.8-46.3 57.8l0 0c-25.5 0-46.3-25.9-46.3-57.8z" class="stroke-9"/>
        <path d="m171.6 54.3l0 0c0-7 5.4-12.6 12.1-12.6l0 0c3.2 0 6.3 1.3 8.6 3.7 2.3 2.4 3.5 5.6 3.5 8.9l0 0c0 7-5.4 12.6-12.1 12.6l0 0c-6.7 0-12.1-5.6-12.1-12.6z" class="no-fill-stroke"/>
        <path d="m171.6 54.3l0 0c0-7 5.4-12.6 12.1-12.6l0 0c3.2 0 6.3 1.3 8.6 3.7 2.3 2.4 3.5 5.6 3.5 8.9l0 0c0 7-5.4 12.6-12.1 12.6l0 0c-6.7 0-12.1-5.6-12.1-12.6z" class="stroke-9"/>
        <path d="m195.8 52.7c5 0.6 26.6-10.2 30.2 3.4 3.7 13.6-6.9 65.1-8.2 78.1" class="no-fill-stroke"/>
        <path d="m195.8 52.7c5 0.6 26.6-10.2 30.2 3.4 3.7 13.6-6.9 65.1-8.2 78.1" class="stroke-4"/>
        <path d="m12.6 195.2l0 0c0-4.1 3.3-7.4 7.4-7.4l9.5 0 0 0c2 0 3.8 0.8 5.2 2.2 1.4 1.4 2.2 3.3 2.2 5.2l0 30.6c0 4.1-3.3 7.4-7.4 7.4l-9.5 0c-4.1 0-7.4-3.3-7.4-7.4z" class="no-fill-stroke"/>
        <path d="m12.6 195.2l0 0c0-4.1 3.3-7.4 7.4-7.4l9.5 0 0 0c2 0 3.8 0.8 5.2 2.2 1.4 1.4 2.2 3.3 2.2 5.2l0 30.6c0 4.1-3.3 7.4-7.4 7.4l-9.5 0c-4.1 0-7.4-3.3-7.4-7.4z" class="stroke-9"/>
        <path d="m294.5 195.8l0 0c-0.2-4.1 2.9-7.5 7-7.7l9.5-0.4 0 0c1.9-0.1 3.9 0.6 5.3 1.9 1.4 1.3 2.3 3.1 2.4 5.1l1.4 30.4c0.2 4.1-2.9 7.5-7 7.7l-9.5 0.4c-4.1 0.2-7.5-2.9-7.7-7z" class="no-fill-stroke"/>
        <path d="m294.5 195.8l0 0c-0.2-4.1 2.9-7.5 7-7.7l9.5-0.4 0 0c1.9-0.1 3.9 0.6 5.3 1.9 1.4 1.3 2.3 3.1 2.4 5.1l1.4 30.4c0.2 4.1-2.9 7.5-7 7.7l-9.5 0.4c-4.1 0.2-7.5-2.9-7.7-7z" class="stroke-9"/>
        <path d="m203 223.2l26.7-1.6 -2.1-36.5 11.9-0.7 2.1 36.5 26.7-1.6 0.7 11.9 -26.7 1.6 2.1 36.5 -11.9 0.7 -2.1-36.5 -26.7 1.6z" fill="#263238"/>
        <path d="m203 223.2l26.7-1.6 -2.1-36.5 11.9-0.7 2.1 36.5 26.7-1.6 0.7 11.9 -26.7 1.6 2.1 36.5 -11.9 0.7 -2.1-36.5 -26.7 1.6z" class="stroke-1"/>
    </g>
</svg>